<?xml version="1.0" encoding="UTF-8"?>
<svg width="180" height="40" viewBox="0 0 180 40" fill="none" xmlns="http://www.w3.org/2000/svg">
  <!-- Logo background -->
  <rect width="180" height="40" rx="8" fill="white"/>
  
  <!-- Sun -->
  <circle cx="25" cy="20" r="12" fill="#FF9500"/>
  
  <!-- Waves -->
  <path d="M50 27.5C47.5 22.5 42.5 22.5 40 25C37.5 27.5 32.5 27.5 30 25C27.5 22.5 22.5 22.5 20 25C17.5 27.5 12.5 27.5 10 25" stroke="#0096FF" stroke-width="2.5" stroke-linecap="round"/>
  <path d="M50 32.5C47.5 27.5 42.5 27.5 40 30C37.5 32.5 32.5 32.5 30 30C27.5 27.5 22.5 27.5 20 30C17.5 32.5 12.5 32.5 10 30" stroke="#0096FF" stroke-width="2.5" stroke-linecap="round"/>
  
  <!-- Palm Tree -->
  <path d="M155 34C155 34 155 25 155 22C155 19 155 18 155 18" stroke="#009B72" stroke-width="2" stroke-linecap="round"/>
  <path d="M155 18C155 18 152 20 150 21C148 22 147 22 147 22" stroke="#009B72" stroke-width="2" stroke-linecap="round"/>
  <path d="M155 22C155 22 152 24 150 25C148 26 147 26 147 26" stroke="#009B72" stroke-width="2" stroke-linecap="round"/>
  <path d="M155 18C155 18 158 20 160 21C162 22 163 22 163 22" stroke="#009B72" stroke-width="2" stroke-linecap="round"/>
  <path d="M155 22C155 22 158 24 160 25C162 26 163 26 163 26" stroke="#009B72" stroke-width="2" stroke-linecap="round"/>

  <!-- Text -->
  <path d="M60 16.5C60 15.3 60.3 14.2333 60.9 13.3C61.5 12.3667 62.3167 11.65 63.35 11.15C64.3833 10.65 65.5333 10.4 66.8 10.4C68.3333 10.4 69.6833 10.7333 70.85 11.4C72.0167 12.0667 72.8333 13.0333 73.3 14.3L69.9 15.7C69.2333 14.3 68.2 13.6 66.8 13.6C65.9333 13.6 65.25 13.8333 64.75 14.3C64.25 14.7667 64 15.5 64 16.5C64 17.5 64.25 18.2333 64.75 18.7C65.25 19.1667 65.9333 19.4 66.8 19.4C68.2 19.4 69.2333 18.7 69.9 17.3L73.3 18.7C72.8333 19.9667 72.0167 20.9333 70.85 21.6C69.6833 22.2667 68.3333 22.6 66.8 22.6C65.5333 22.6 64.3833 22.35 63.35 21.85C62.3167 21.35 61.5 20.6333 60.9 19.7C60.3 18.7667 60 17.7 60 16.5Z" fill="#0096FF"/>
  <path d="M74.6 22.5V10.5H78.6V19.3H84.5V22.5H74.6Z" fill="#0096FF"/>
  <path d="M85.8 16.5C85.8 15.3 86.1 14.2333 86.7 13.3C87.3 12.3667 88.1167 11.65 89.15 11.15C90.1833 10.65 91.3333 10.4 92.6 10.4C94.1333 10.4 95.4833 10.7333 96.65 11.4C97.8167 12.0667 98.6333 13.0333 99.1 14.3L95.7 15.7C95.0333 14.3 94 13.6 92.6 13.6C91.7333 13.6 91.05 13.8333 90.55 14.3C90.05 14.7667 89.8 15.5 89.8 16.5C89.8 17.5 90.05 18.2333 90.55 18.7C91.05 19.1667 91.7333 19.4 92.6 19.4C94 19.4 95.0333 18.7 95.7 17.3L99.1 18.7C98.6333 19.9667 97.8167 20.9333 96.65 21.6C95.4833 22.2667 94.1333 22.6 92.6 22.6C91.3333 22.6 90.1833 22.35 89.15 21.85C88.1167 21.35 87.3 20.6333 86.7 19.7C86.1 18.7667 85.8 17.7 85.8 16.5Z" fill="#0096FF"/>
  <path d="M100.4 22.5V10.5H104.4V22.5H100.4Z" fill="#0096FF"/>
  <path d="M106.2 22.5V10.5H110.2V19.3H116.1V22.5H106.2Z" fill="#0096FF"/>
  <path d="M117.4 22.5V10.5H121.4V22.5H117.4Z" fill="#0096FF"/>
  <path d="M123.3 22.5V10.5H127.3V22.5H123.3Z" fill="#0096FF"/>
  
  <path d="M60 32.5C60 31.3 60.3 30.2333 60.9 29.3C61.5 28.3667 62.3167 27.65 63.35 27.15C64.3833 26.65 65.5333 26.4 66.8 26.4C68.3333 26.4 69.6833 26.7333 70.85 27.4C72.0167 28.0667 72.8333 29.0333 73.3 30.3L69.9 31.7C69.2333 30.3 68.2 29.6 66.8 29.6C65.9333 29.6 65.25 29.8333 64.75 30.3C64.25 30.7667 64 31.5 64 32.5C64 33.5 64.25 34.2333 64.75 34.7C65.25 35.1667 65.9333 35.4 66.8 35.4C68.2 35.4 69.2333 34.7 69.9 33.3L73.3 34.7C72.8333 35.9667 72.0167 36.9333 70.85 37.6C69.6833 38.2667 68.3333 38.6 66.8 38.6C65.5333 38.6 64.3833 38.35 63.35 37.85C62.3167 37.35 61.5 36.6333 60.9 35.7C60.3 34.7667 60 33.7 60 32.5Z" fill="#FF9500"/>
  <path d="M74.6 38.5V26.5H82.9V29.7H78.6V30.9H82.3V34.1H78.6V35.3H82.9V38.5H74.6Z" fill="#FF9500"/>
  <path d="M93.4 38.5L91.7 35.6H90.2V38.5H86.2V26.5H92.4C93.4667 26.5 94.3667 26.7 95.1 27.1C95.8333 27.5 96.3833 28.0333 96.75 28.7C97.1167 29.3667 97.3 30.1 97.3 30.9C97.3 31.7 97.1167 32.4333 96.75 33.1C96.3833 33.7667 95.8333 34.3 95.1 34.7L97.6 38.5H93.4ZM90.2 32.5H92.1C92.5 32.5 92.8 32.3833 93 32.15C93.2 31.9167 93.3 31.6 93.3 31.2C93.3 30.8 93.2 30.4833 93 30.25C92.8 30.0167 92.5 29.9 92.1 29.9H90.2V32.5Z" fill="#FF9500"/>
  <path d="M98.5 26.5H102.5V35.3H108.4V38.5H98.5V26.5Z" fill="#FF9500"/>
  <path d="M109.7 26.5H113.7V35.3H119.6V38.5H109.7V26.5Z" fill="#FF9500"/>
  
  <path d="M129 10.5V22.5H133V10.5H129Z" fill="#009B72"/>
  <path d="M133.4 26.5V38.5H137.4V26.5H133.4Z" fill="#009B72"/>
</svg>